<svg width="139" height="19" viewBox="0 0 139 19" fill="none" xmlns="http://www.w3.org/2000/svg">
    <g clip-path="url(#clip0_128_228)">
        <path d="M11.4355 3.56445H7.44141V15H4.27734V3.56445H0.302734V0.996094H11.4355V3.56445Z" fill="#FE7F95"/>
        <path d="M28.0762 15H24.9414V0.996094H28.0762V15ZM13.3203 15V0.996094H16.4746V6.24023H18.5352C21.9141 6.24023 23.6035 7.61393 23.6035 10.3613C23.6035 11.8262 23.1478 12.9655 22.2363 13.7793C21.3249 14.5931 20.0391 15 18.3789 15H13.3203ZM16.4746 8.62305V12.5977H17.9004C19.4889 12.5977 20.2832 11.9238 20.2832 10.5762C20.2832 9.27409 19.5085 8.62305 17.959 8.62305H16.4746ZM55.0195 15H46.6211V0.996094H54.6973V3.56445H49.7754V6.67969H54.3555V9.23828H49.7754V12.4414H55.0195V15ZM85.5371 18.8184H82.7637V15H73.877V18.8184H71.1426V12.4219H72.4414C74.2513 9.14714 75.2507 5.33854 75.4395 0.996094H83.5449V12.4219H85.5371V18.8184ZM80.3809 12.4219V3.62305H77.998C77.9264 4.91862 77.679 6.37695 77.2559 7.99805C76.8327 9.61914 76.3086 11.0938 75.6836 12.4219H80.3809ZM99.9902 15H96.8262V9.29688H91.0254V15H87.8711V0.996094H91.0254V6.58203H96.8262V0.996094H99.9902V15ZM115.518 15H112.08L111.084 11.8848H106.104L105.117 15H101.699L106.797 0.996094H110.537L115.518 15ZM110.361 9.46289L108.857 4.75586C108.747 4.4043 108.669 3.98438 108.623 3.49609H108.545C108.512 3.90625 108.431 4.31315 108.301 4.7168L106.777 9.46289H110.361ZM118.34 15.2441C117.832 15.2441 117.409 15.0879 117.07 14.7754C116.732 14.4629 116.562 14.0788 116.562 13.623C116.562 13.1543 116.735 12.7702 117.08 12.4707C117.432 12.1712 117.868 12.0215 118.389 12.0215C118.916 12.0215 119.346 12.1745 119.678 12.4805C120.016 12.7799 120.186 13.1608 120.186 13.623C120.186 14.0983 120.013 14.4889 119.668 14.7949C119.329 15.0944 118.887 15.2441 118.34 15.2441ZM132.529 3.56445H128.535V15H125.371V3.56445H121.396V0.996094H132.529V3.56445ZM138.926 9.44336C138.926 11.3184 138.49 12.7539 137.617 13.75C136.751 14.7461 135.495 15.2441 133.848 15.2441C133.112 15.2441 132.432 15.1172 131.807 14.8633V11.9043C132.347 12.3145 132.952 12.5195 133.623 12.5195C135.062 12.5195 135.781 11.4518 135.781 9.31641V0.996094H138.926V9.44336Z" fill="black"/>
        <path d="M43.4082 15H40.2441V9.29688H34.4434V15H31.2891V0.996094H34.4434V6.58203H40.2441V0.996094H43.4082V15Z" fill="#FF7992"/>
        <path d="M63.1836 15.2441C61.1784 15.2441 59.5443 14.5931 58.2812 13.291C57.0182 11.9824 56.3867 10.2799 56.3867 8.18359C56.3867 5.97005 57.028 4.17969 58.3105 2.8125C59.5931 1.44531 61.2923 0.761719 63.4082 0.761719C65.4069 0.761719 67.0215 1.41602 68.252 2.72461C69.4889 4.0332 70.1074 5.75846 70.1074 7.90039C70.1074 10.1009 69.4661 11.875 68.1836 13.2227C66.9076 14.5703 65.2409 15.2441 63.1836 15.2441ZM63.3203 3.47656C62.2135 3.47656 61.3346 3.89323 60.6836 4.72656C60.0326 5.55339 59.707 6.65039 59.707 8.01758C59.707 9.4043 60.0326 10.5013 60.6836 11.3086C61.3346 12.1159 62.1875 12.5195 63.2422 12.5195C64.3294 12.5195 65.1921 12.1289 65.8301 11.3477C66.4681 10.5599 66.7871 9.4694 66.7871 8.07617C66.7871 6.62435 66.4779 5.49479 65.8594 4.6875C65.2409 3.88021 64.3945 3.47656 63.3203 3.47656Z" fill="#FF7D95"/>
    </g>
    <defs>
        <clipPath id="clip0_128_228">
            <rect width="139" height="19" fill="white"/>
        </clipPath>
    </defs>
</svg>
