<svg width="14" height="14" viewBox="0 0 14 14" fill="none" xmlns="http://www.w3.org/2000/svg">
    <path d="M13.3913 6.125H0.608687C0.272515 6.125 0 6.51674 0 6.99999C0 7.48323 0.272515 7.87497 0.608687 7.87497H13.3913C13.7275 7.87497 14 7.48323 14 6.99999C14 6.51674 13.7275 6.125 13.3913 6.125Z" fill="#FF92A4"/>
    <path d="M0.608687 1.74997H13.3913C13.7275 1.74997 14 1.35823 14 0.874987C14 0.391741 13.7275 0 13.3913 0H0.608687C0.272515 0 0 0.391741 0 0.874987C0 1.35823 0.272515 1.74997 0.608687 1.74997Z" fill="#FF92A4"/>
    <path d="M13.3913 12.25H0.608687C0.272515 12.25 0 12.6418 0 13.125C0 13.6083 0.272515 14 0.608687 14H13.3913C13.7275 14 14 13.6083 14 13.125C14 12.6418 13.7275 12.25 13.3913 12.25Z" fill="#FF92A4"/>
</svg>
