<svg width="15" height="14" viewBox="0 0 15 14" fill="none" xmlns="http://www.w3.org/2000/svg">
    <path d="M14.1417 0.170795C14.0323 0.0614351 13.884 0 13.7293 0C13.5746 0 13.4263 0.0614351 13.3169 0.170795L7.3125 6.17515L1.30814 0.170795C1.19875 0.0614351 1.0504 0 0.895719 0C0.741037 0 0.592688 0.0614351 0.483295 0.170795C0.373935 0.280188 0.3125 0.428537 0.3125 0.583219C0.3125 0.737901 0.373935 0.88625 0.483295 0.995643L6.48765 7L0.483295 13.0044C0.373935 13.1138 0.3125 13.2621 0.3125 13.4168C0.3125 13.5715 0.373935 13.7198 0.483295 13.8292C0.592688 13.9386 0.741037 14 0.895719 14C1.0504 14 1.19875 13.9386 1.30814 13.8292L7.3125 7.82485L13.3169 13.8292C13.4263 13.9386 13.5746 14 13.7293 14C13.884 14 14.0323 13.9386 14.1417 13.8292C14.2511 13.7198 14.3125 13.5715 14.3125 13.4168C14.3125 13.2621 14.2511 13.1138 14.1417 13.0044L8.13735 7L14.1417 0.995643C14.2511 0.88625 14.3125 0.737901 14.3125 0.583219C14.3125 0.428537 14.2511 0.280188 14.1417 0.170795Z"
          fill="#FF92A4"/>
</svg>
